inDegrees=no
num_controls=7
num_derivatives=13
num_iterations=67
num_multipliers=7
num_parameters=0
num_slacks=7
num_states=26
objective=0.456895
objective_accelerations=0.000778
objective_balance=0.001219
objective_effort=0.007472
objective_height=0.425954
objective_ligament=0.021473
solver_duration=717.156977
status=Solve_Succeeded
success=true
DataType=double
version=3
OpenSimVersion=4.5
endheader
time	/jointset/ground_pelvis/pelvis_tilt/value	/jointset/ground_pelvis/pelvis_tx/value	/jointset/ground_pelvis/pelvis_ty/value	/jointset/hip_r/hip_flexion_r/value	/jointset/hip_r/hip_adduction_r/value	/jointset/hip_r/hip_rotation_r/value	/jointset/back/lumbar_extension/value	/jointset/patellofemoral_r/patellar_flexion_r/value	/jointset/knee_r/knee_flexion_r/value	/jointset/knee_r/knee_adduction_r/value	/jointset/knee_r/knee_rotation_r/value	/jointset/ankle_r/ankle_angle_r/value	/jointset/subtalar_r/subtalar_angle_r/value	/jointset/ground_pelvis/pelvis_tilt/speed	/jointset/ground_pelvis/pelvis_tx/speed	/jointset/ground_pelvis/pelvis_ty/speed	/jointset/hip_r/hip_flexion_r/speed	/jointset/hip_r/hip_adduction_r/speed	/jointset/hip_r/hip_rotation_r/speed	/jointset/back/lumbar_extension/speed	/jointset/patellofemoral_r/patellar_flexion_r/speed	/jointset/knee_r/knee_flexion_r/speed	/jointset/knee_r/knee_adduction_r/speed	/jointset/knee_r/knee_rotation_r/speed	/jointset/ankle_r/ankle_angle_r/speed	/jointset/subtalar_r/subtalar_angle_r/speed	/forceset/tau_hip_flexion_r	/forceset/tau_hip_adduction_r	/forceset/tau_hip_rotation_r	/forceset/tau_knee_flexion_r	/forceset/tau_ankle_angle_r	/forceset/tau_subtalar_angle_r	/forceset/tau_lumbar_extension	lambda_cid13_p0	lambda_cid14_p0	lambda_cid14_p1	lambda_cid14_p2	lambda_cid14_p3	lambda_cid14_p4	lambda_cid14_p5	/jointset/ground_pelvis/pelvis_tilt/accel	/jointset/ground_pelvis/pelvis_tx/accel	/jointset/ground_pelvis/pelvis_ty/accel	/jointset/hip_r/hip_flexion_r/accel	/jointset/hip_r/hip_adduction_r/accel	/jointset/hip_r/hip_rotation_r/accel	/jointset/back/lumbar_extension/accel	/jointset/patellofemoral_r/patellar_flexion_r/accel	/jointset/knee_r/knee_flexion_r/accel	/jointset/knee_r/knee_adduction_r/accel	/jointset/knee_r/knee_rotation_r/accel	/jointset/ankle_r/ankle_angle_r/accel	/jointset/subtalar_r/subtalar_angle_r/accel	gamma_cid13_p0	gamma_cid14_p0	gamma_cid14_p1	gamma_cid14_p2	gamma_cid14_p3	gamma_cid14_p4	gamma_cid14_p5
0	0.01278572309089336	0.1209708469500523	0.9369979834612625	0.1934211968871041	-0.08700980518082423	-0.008228367715787773	-0.2903787966825928	0.2311786273363043	0.2311786273363406	-0.1389847239815121	-0.1539532470906707	0.089344008118978	0.2379010674439622	0	0	0	0	0	0	0	0	0	0	0	0	0	0.02326722836546287	0.05468347843699517	0.04207637141483218	-0.1644807678216921	0.08087815771733163	-0.05228408323155603	0.05861087758373223	-27.64997583071229	-25.75102049983897	-34.31052518048249	13.9958585286994	-2.934628970631677	-660.9180287049984	19.76114639718612	0.2368587171615268	0.02163297738130675	0.001120707207415152	-0.1504257492316472	0.01011315574738528	-0.02572593926081604	-0.3923671541692272	0.2584149008430335	0.2584149008431778	-0.04492788521230191	0.007241343358311906	0.1852782254284025	0.09528130697845111	1.388651180400261e-11	-3.520322327143424e-11	7.013583991282028e-10	2.602051827433051e-10	-2.508826785396985e-11	-7.006442905808173e-12	4.347625563174234e-10
0.01	0.01279648898591178	0.1209725596881661	0.9369980329011447	0.193413612262366	-0.08700934168058382	-0.008229513951036257	-0.2903980568110425	0.231190691941744	0.2311906919417537	-0.1389868493256811	-0.1539531881641886	0.08935350427777346	0.2379058776818408	0.002048214755951665	0.0004055963708367917	8.9753239116071e-06	-0.00152135075310846	8.276914338225207e-05	-0.0002132937070303414	-0.003819912301294475	0.002336721732887011	0.002336721732885867	-0.0004012701187938785	-1.627506074608519e-05	0.001927573752108927	0.0009615784928034408	0.02688564911680924	0.05278399943858506	0.04359172310965499	-0.1719359864454274	0.09088766647035196	-0.05030934042940542	0.05629034820858217	-27.65019065996336	-22.40078395064496	-33.56889324950473	14.68016145644715	-5.71239923205344	-661.235809546608	21.142353200906	0.1730582163958574	0.05948027561217418	0.0006490456482140395	-0.1536536094210675	0.005869234797292691	-0.01673805292732478	-0.3719862610874153	0.2098709026131244	0.2098709026128082	-0.03415665961544216	-0.01027094256718253	0.2007482109099375	0.09652590117156701	-3.663669359289849e-13	-4.498128287516242e-11	8.13419693242764e-11	2.656449028015207e-10	2.45558337273155e-11	3.323411958731856e-11	-6.609454235239598e-11
0.02	0.01282458810083595	0.1209802198517256	0.9369981447143984	0.193390681355965	-0.08700834840067494	-0.008232314516650373	-0.2904545526610836	0.2312238377831544	0.2312238377831546	-0.138992273387927	-0.1539541337906299	0.08938312642625362	0.2379202896607956	0.003466643975153542	0.00118948508912943	1.247467431044104e-05	-0.003069256349033279	0.0001059559333189947	-0.0003308660742149572	-0.007447144321799319	0.004216247189820798	0.004216247189817724	-0.0006597436136863861	-0.0002009105925156996	0.004025197936523926	0.001920348215213998	0.03050406986865052	0.05088452044014228	0.04510707480468826	-0.1793912050688953	0.1008971752234375	-0.04833459762727227	0.05396981883379829	-27.65079897459188	-19.04925083917385	-32.82806478631093	15.36576954288316	-8.499532071026714	-661.5329212344333	22.51612557897072	0.1109016098109619	0.09729144687300707	2.551250483945233e-05	-0.155736717794996	-0.001803314941778114	-0.006581671291826909	-0.3538310980116606	0.1669756456521974	0.1669756456521841	-0.01636856043194276	-0.02643075084635999	0.2192883118901418	0.09471955290003022	-1.461924567586058e-11	-5.47593424788906e-11	-5.3867446047965e-10	2.710846228597363e-10	7.419993530860085e-11	7.347468208044529e-11	-5.669516410222154e-10
0.03	0.01286501587389283	0.1209968719672221	0.9369982862749574	0.1933520675718795	-0.08700730117827819	-0.008236034701100983	-0.2905465311237408	0.231274278943526	0.2312742789435656	-0.1389998532487034	-0.1539574097753134	0.08943419907082562	0.2379442671585539	0.004644777684858389	0.002130292820292617	1.745185903078921e-05	-0.00466856800751969	0.0001065157587888859	-0.0004209129028759636	-0.01093535902693931	0.005870907954295685	0.005870907954296654	-0.0008629467529655368	-0.0004459568769138742	0.006178732339126762	0.002874531278552718	0.02946708994562676	0.05069108666074761	0.04472121241459048	-0.1774513036437599	0.09806607027481309	-0.04830065669905021	0.05470133773649949	-27.65175167610403	-19.9417660202854	-32.77851515356058	15.13960834062836	-7.828719590857562	-661.5357932746555	22.68759596151456	0.1251492988104179	0.09087867415853072	0.0009759994834947627	-0.1642885295588017	0.001439715955805335	-0.01137744467469464	-0.3443382804053537	0.1645497537570825	0.1645497537576337	-0.02330397134446605	-0.02229209575625447	0.211796224400404	0.09567462213468954	-9.008949063179296e-12	-4.059442652076957e-11	-8.789352705558923e-10	5.367961315510209e-10	8.303351677824924e-11	1.652702166677197e-10	-1.161766395499241e-09
0.04	0.01291800099352831	0.121022612807616	0.9369985260429701	0.1932970086433046	-0.08700615754069133	-0.00824088760503962	-0.2906729960581713	0.231341234403993	0.2313412344039903	-0.1390096666970007	-0.1539628863283652	0.08950648910341585	0.2379777678747621	0.005978113284835158	0.00300723006859107	3.211616503993943e-05	-0.006358285253341417	0.0001252389708350038	-0.0005574099724375767	-0.01434443867777868	0.007519107195243051	0.007519107195248159	-0.001106461118987669	-0.0006410243020927367	0.008268675539931368	0.003824991905246609	0.02843011002272831	0.050497652881349	0.04433535002557702	-0.175511402218291	0.09523496532623685	-0.0482667157708309	0.05543285663925759	-27.65303018255244	-20.83323698657289	-32.72977308446436	14.91470715927721	-7.168206942498714	-661.52247932692	22.85273387301105	0.1419419878647805	0.08451735030054797	0.001962936762580152	-0.1738178352621241	0.001829362373413836	-0.01587171947210135	-0.3380040871518757	0.165683340946511	0.1656833409465168	-0.02443080578046862	-0.01643497900245883	0.2065700715309749	0.09397506557121062	-2.989102443227638e-12	-2.593584096343513e-11	-1.213427923524348e-09	8.078740688739153e-10	9.102564422497731e-11	2.581287403703374e-10	-1.758518421230024e-09
0.05	0.01298492502779736	0.1210567162613697	0.9369989522520268	0.1932248466263151	-0.0870047596762358	-0.008247199752074398	-0.2908329928099425	0.2314245681598702	0.2314245681599282	-0.1390220355872858	-0.1539701504452914	0.08959918433242113	0.2380206440911158	0.007415676534770348	0.00379407340586791	5.391310193053496e-05	-0.008064933262625331	0.0001551502623901234	-0.0006983814860722977	-0.01762543796889375	0.009139197900419694	0.009139197900420011	-0.001366173408699976	-0.0008128482049653956	0.01024197278718571	0.004738707457206239	0.02713547754715722	0.05076258966485052	0.04382279230177644	-0.1729557590464002	0.09154826562353928	-0.04863502025805757	0.05633706227843244	-27.65462969752006	-22.0434103604018	-32.85121964626916	14.64805127693044	-6.198751584817445	-661.5710341190501	22.69028005928097	0.1460109215603008	0.07285975352322815	0.002406242824843565	-0.167710562177808	0.003694559232076264	-0.0122140287067315	-0.3187267944290826	0.158905023890569	0.1589050238901123	-0.0265699708366731	-0.0177133216803135	0.1884499791870374	0.08833812063158032	1.934275548054708e-12	-2.60177651375042e-11	-9.7500252213786e-10	6.928670351219144e-10	6.997059759440486e-11	1.510262462804899e-10	-1.344294811392526e-09
